<?xml version="1.0" encoding="iso-8859-1"?>
<!-- Generator: Adobe Illustrator 19.0.0, SVG Export Plug-In . SVG Version: 6.00 Build 0)  -->
<svg version="1.1" id="Layer_1" xmlns="http://www.w3.org/2000/svg" xmlns:xlink="http://www.w3.org/1999/xlink" x="0px" y="0px"
	 viewBox="0 0 512 512" style="enable-background:new 0 0 512 512;" xml:space="preserve">
<g>
	<g>
		<g>
			<path d="M128,256h34.133c4.719,0,8.533-3.823,8.533-8.533s-3.814-8.533-8.533-8.533H128c-4.719,0-8.533,3.823-8.533,8.533
				S123.281,256,128,256z"/>
			<path d="M264.533,187.733H128c-4.719,0-8.533,3.823-8.533,8.533s3.814,8.533,8.533,8.533h136.533
				c4.719,0,8.533-3.823,8.533-8.533S269.252,187.733,264.533,187.733z"/>
			<path d="M256,298.667c0,4.71,3.814,8.533,8.533,8.533h85.333c4.719,0,8.533-3.823,8.533-8.533s-3.814-8.533-8.533-8.533h-85.333
				C259.814,290.133,256,293.956,256,298.667z"/>
			<path d="M298.667,238.933h-102.4c-4.719,0-8.533,3.823-8.533,8.533s3.814,8.533,8.533,8.533h102.4
				c4.719,0,8.533-3.823,8.533-8.533S303.386,238.933,298.667,238.933z"/>
			<path d="M298.667,136.533h17.067c4.719,0,8.533-3.823,8.533-8.533s-3.814-8.533-8.533-8.533h-7.97
				c3.866-27.861,26.129-34.125,27.102-34.389c3.806-0.947,6.468-4.361,6.468-8.277V42.667c0-4.71-3.814-8.533-8.533-8.533
				c-2.688,0-6.656-0.64-8.533-1.468V17.067h51.2v15.599c-1.775,0.777-5.53,1.451-8.533,1.468c-4.719,0-8.533,3.823-8.533,8.533
				V76.8c0,3.917,2.671,7.33,6.468,8.277c0.247,0.068,23.177,6.135,27.102,34.389h-42.103c-4.719,0-8.533,3.823-8.533,8.533v51.2
				c0,4.71,3.814,8.533,8.533,8.533c4.719,0,8.533-3.823,8.533-8.533v-42.667h42.667c4.719,0,8.533-3.823,8.533-8.533
				c0-33.604-19.703-50.842-34.133-57.216V50.398c9.054-1.775,17.067-6.656,17.067-16.265v-25.6C392.533,3.823,388.719,0,384,0
				h-68.267c-4.719,0-8.533,3.823-8.533,8.533v25.6c0,9.609,8.013,14.49,17.067,16.265v20.386
				c-14.43,6.374-34.133,23.612-34.133,57.216C290.133,132.71,293.948,136.533,298.667,136.533z"/>
			<path d="M128,307.2h102.4c4.719,0,8.533-3.823,8.533-8.533s-3.814-8.533-8.533-8.533H128c-4.719,0-8.533,3.823-8.533,8.533
				S123.281,307.2,128,307.2z"/>
			<path d="M435.2,68.267h-8.533c-4.719,0-8.533,3.823-8.533,8.533s3.814,8.533,8.533,8.533h8.533c14.114,0,25.6,11.486,25.6,25.6
				v358.4c0,14.114-11.486,25.6-25.6,25.6H196.267c-4.719,0-8.533,3.823-8.533,8.533s3.814,8.533,8.533,8.533H435.2
				c23.526,0,42.667-19.14,42.667-42.667v-358.4C477.867,87.407,458.726,68.267,435.2,68.267z"/>
			<path d="M136.533,375.467H93.867c-4.719,0-8.533,3.823-8.533,8.533s3.814,8.533,8.533,8.533h42.667
				c9.412,0,17.067,7.654,17.067,17.067v73.267l-102.4-102.4V110.933c0-14.114,11.486-25.6,25.6-25.6h196.267
				c4.719,0,8.533-3.823,8.533-8.533s-3.814-8.533-8.533-8.533H76.8c-23.526,0-42.667,19.14-42.667,42.667V384
				c0,2.261,0.896,4.437,2.5,6.033L156.1,509.5c1.63,1.63,3.814,2.5,6.033,2.5c1.101,0,2.21-0.213,3.268-0.648
				c3.191-1.323,5.265-4.437,5.265-7.885V409.6C170.667,390.775,155.358,375.467,136.533,375.467z"/>
			<path d="M247.467,358.4h119.467c4.719,0,8.533-3.823,8.533-8.533s-3.814-8.533-8.533-8.533H247.467
				c-4.719,0-8.533,3.823-8.533,8.533S242.748,358.4,247.467,358.4z"/>
			<path d="M392.533,247.467c0-4.71-3.814-8.533-8.533-8.533h-51.2c-4.719,0-8.533,3.823-8.533,8.533S328.081,256,332.8,256H384
				C388.719,256,392.533,252.177,392.533,247.467z"/>
		</g>
	</g>
</g>
<g>
</g>
<g>
</g>
<g>
</g>
<g>
</g>
<g>
</g>
<g>
</g>
<g>
</g>
<g>
</g>
<g>
</g>
<g>
</g>
<g>
</g>
<g>
</g>
<g>
</g>
<g>
</g>
<g>
</g>
</svg>
